<?xml version="1.0" encoding="UTF-8" standalone="no"?>
<svg
   xmlns:dc="http://purl.org/dc/elements/1.1/"
   xmlns:cc="http://creativecommons.org/ns#"
   xmlns:rdf="http://www.w3.org/1999/02/22-rdf-syntax-ns#"
   xmlns:svg="http://www.w3.org/2000/svg"
   xmlns="http://www.w3.org/2000/svg"
   xmlns:sodipodi="http://sodipodi.sourceforge.net/DTD/sodipodi-0.dtd"
   xmlns:inkscape="http://www.inkscape.org/namespaces/inkscape"
   version="1.1"
   id="Layer_3"
   x="0px"
   y="0px"
   viewBox="47.6 310.9 500.7443 161.134"
   enable-background="new 47.6 310.9 500 220"
   xml:space="preserve"
   inkscape:version="0.48.5 r10040"
   width="100%"
   height="100%"
   sodipodi:docname="couple.svg"
   style="fill:#dcdbdc"><metadata
   id="metadata3041"><rdf:RDF><cc:Work
       rdf:about=""><dc:format>image/svg+xml</dc:format><dc:type
         rdf:resource="http://purl.org/dc/dcmitype/StillImage" /><dc:title></dc:title></cc:Work></rdf:RDF></metadata><defs
   id="defs3039" /><sodipodi:namedview
   pagecolor="#ffffff"
   bordercolor="#666666"
   borderopacity="1"
   objecttolerance="10"
   gridtolerance="10"
   guidetolerance="10"
   inkscape:pageopacity="0"
   inkscape:pageshadow="2"
   inkscape:window-width="1366"
   inkscape:window-height="705"
   id="namedview3037"
   showgrid="false"
   inkscape:zoom="2.2061732"
   inkscape:cx="134.35921"
   inkscape:cy="109.79526"
   inkscape:window-x="-8"
   inkscape:window-y="-8"
   inkscape:window-maximized="1"
   inkscape:current-layer="layer2"
   inkscape:showpageshadow="false"
   fit-margin-top="0"
   fit-margin-left="0"
   fit-margin-right="0"
   fit-margin-bottom="0" />
											
										<path
   style="fill:#ffffff;fill-opacity:0.33333333;stroke:none"
   d=""
   id="path3933"
   inkscape:connector-curvature="0"
   transform="translate(47.6,310.9)" /><g
   inkscape:groupmode="layer"
   id="layer2"
   inkscape:label="Layer#1"
   style="display:inline"><path
     style="fill:#ffffff;stroke:none"
     d="m 127.03424,449.26726 c 0,0 -71.163947,-11.78511 -72.070494,-28.10296 -0.906548,-16.31785 8.158924,-29.00951 8.158924,-29.00951 l 7.252377,-42.15445 60.738663,1.8131 81.13597,-31.72915 101.08001,-2.26637 77.96305,37.62171 101.53329,7.70565 43.06099,9.06547 3.62619,16.31785 5.89256,11.78511 -2.26637,17.67767 -9.06547,12.23839 -0.90655,14.50475 -32.63569,7.25238 -16.31785,12.23839 c 0,0 -26.74314,4.98601 -35.35534,-0.45328 -8.6122,-5.43928 -22.21041,-13.5982 -22.21041,-13.5982 l -236.60882,0.45327 c 0,0 -9.06547,11.78511 -16.77112,12.69166 -7.70565,0.90655 -15.86457,4.07946 -15.86457,4.07946 l -23.11696,-11.33184 z"
     id="path3951"
     inkscape:connector-curvature="0" /></g><g
   inkscape:groupmode="layer"
   id="layer1"
   inkscape:label="Layer"
   style="display:inline"><g
     style="fill:#dcdbdc"
     id="g3082"
     transform="translate(17.43887,-22.714562)"><g
       id="g3068"
       transform="matrix(1.1484961,0,0,1.1484961,-60.553084,-88.573904)"><g
         id="g3055"><g
           id="g3015"><path
             id="path3017"
             d="m 198.7,492.4 v -9.2 h 21.1 c 65.9,0 134.2,-0.5 198.7,0 v 9.2 c -64.6,0 -132.8,0 -198.7,0 h -21.1 l 0,0 z m -45.8,1.4 C 132.3,491.1 95.7,480.1 83.8,471.4 L 79.7,470 v -25.6 l 1.4,-1.4 c 1.8,-1.8 6,-8.2 6,-12.8 l 4.1,-18.3 -4.7,-18.9 22,2.7 H 146 c 3.7,-1.4 8.7,-3.7 14.2,-6 29.3,-11.9 56.8,-21.5 68.7,-21.5 h 78.8 c 1.4,0 2.3,0 3.7,0.5 23.8,6.9 45.3,18.8 70.5,33.4 h 0.5 c 70.1,2.7 111.3,8.2 125.5,16.5 l 2.3,1.4 v 14.7 l 5.5,4.6 v 2.3 c 0,17.9 -7.8,25.2 -12.4,29.3 0,0.5 -0.5,0.9 0,0.9 1.4,2.7 2.3,5 2.3,7.8 v 3.2 l -5,1.4 c -11,4.6 -22.4,7.3 -36.2,8.7 v -9.6 c 11,-0.9 21.1,-3.2 30.2,-6.4 0,-0.5 0.9,-0.5 0.9,-0.9 -0.9,-2.3 -1.8,-4.1 -1.8,-6 v -2.3 l 0.9,-0.9 c 0.9,-0.9 1.4,-1.4 2.3,-2.3 4.1,-3.7 9.2,-7.8 9.6,-20.1 l -5.5,-4.6 v -16 c -11,-5 -40.3,-11 -118.1,-14.2 h -3.7 l -0.9,-0.5 c -24.7,-14.7 -46.2,-24.7 -69.1,-31.1 -0.5,0 -0.9,0 -0.9,0 H 229 c -10.5,0 -44.9,13.7 -65,22 -6.4,2.3 -11.4,4.1 -15.6,5.5 L 147,406 h -39.4 -8.2 l 1.4,5.5 -4.6,20.6 c 0,6.4 -5,13.7 -7.8,16.5 v 16.9 c 12.4,7.3 46.2,16.9 64.1,19.2 v 9.2 h 0.4 z"
             inkscape:connector-curvature="0" /><path
             id="path3019"
             d="m 243.6,385.2 c 0.5,8.2 1.4,16 1.8,24.3 -12.4,-2.7 -25.2,-5.5 -37.5,-8.7 15.1,-10.1 17.8,-15.6 35.7,-15.6 l 0,0 0,0 z m 9.6,0 c 17.9,0 36.2,0 54,0 12.8,3.7 25.2,9.2 37.5,15.1 l -0.5,0.5 0,0 c -2.7,2.7 -4.6,6.4 -5.5,10.1 -9.2,0 -19.7,0 -30.7,0 -17.4,0 -35.3,0 -52.7,0 -0.7,-8.3 -1.2,-17 -2.1,-25.7 l 0,0 z"
             inkscape:connector-curvature="0" /><path
             id="path3021"
             d="m 424.9,503.4 c -4.6,-2.3 -8.2,-6 -11.4,-10.1 l -3.2,-0.5 c -1.8,-0.5 -5,-0.9 -6.9,-0.9 L 399.7,491 V 487.3 475 c 0,-11.9 2.7,-22.4 10.5,-30.2 h 1.4 c 6.4,-6.4 16,-10.5 30.2,-10.5 13.7,0 23.4,4.1 30.2,10.5 l 0,0 c 7.8,7.8 10.5,18.3 10.5,30.2 v 7.8 4.1 l -4.1,0.5 c -1.4,0.5 -2.7,0.5 -4.1,0.9 l 0,0 -1.4,0.5 c -2.7,5.5 -6.4,10.1 -11.4,13.7 -5.5,3.7 -12.4,6 -19.7,6 -5.9,-0.6 -11.8,-2.4 -16.9,-5.1 l 0,0 0,0 0,0 z m 17,-54.1 c -13.3,0 -23.8,10.5 -23.8,23.8 0,13.3 10.5,23.8 23.8,23.8 13.3,0 23.8,-10.5 23.8,-23.8 0,-12.8 -10.5,-23.8 -23.8,-23.8 l 0,0 0,0 z m -267.4,0 c -13.3,0 -23.8,10.5 -23.8,23.8 0,13.3 10.5,23.8 23.8,23.8 13.3,0 23.8,-10.5 23.8,-23.8 0,-12.8 -10.6,-23.8 -23.8,-23.8 l 0,0 0,0 z m -29.3,-5 h -0.5 c 6.4,-6.4 16,-10.5 30.2,-10.5 13.7,0 23.4,4.1 30.2,10.5 h 1.8 c 7.8,7.8 10.5,18.3 10.5,30.2 v 15.1 2.7 h -4.6 -11.4 c -2.7,3.7 -6.4,6.9 -11,9.2 -5,2.7 -10.5,6 -16,6 -6,0 -11.9,-1.4 -16.5,-4.6 -4.6,-2.3 -8.2,-6 -11.4,-10.1 l -3.2,-0.5 c -1.8,-0.5 -3.2,-0.9 -5,-1.4 l -3.7,-0.9 v -3.7 -12.4 c 0,-11.3 2.8,-21.8 10.6,-29.6 l 0,0 z"
             inkscape:connector-curvature="0" /><path
             id="path3023"
             d="m 174.5,464.9 c -5,0 -8.7,3.7 -8.7,8.7 0,4.6 3.7,8.7 8.7,8.7 4.6,0 8.7,-4.1 8.7,-8.7 0,-5 -4.2,-8.7 -8.7,-8.7 l 0,0 z"
             inkscape:connector-curvature="0" /><polygon
             id="polygon3025"
             points="258.3,419.1 281.2,419.1 281.2,423.7 258.3,423.7 " /><polygon
             id="polygon3027"
             points="230.8,465.4 230.8,474.1 388.8,474.1 " /><path
             id="path3029"
             d="m 441.9,464.9 c -4.6,0 -8.7,3.7 -8.7,8.7 0,4.6 3.7,8.7 8.7,8.7 5,0 8.7,-4.1 8.7,-8.7 0,-5 -4.1,-8.7 -8.7,-8.7 l 0,0 z"
             inkscape:connector-curvature="0" /><path
             id="path3031"
             d="m 464.3,396.2 h -49.9 l -21.1,9.2 v 2.3 c 21.5,1.4 47.6,3.2 71,6 v -17.5 l 0,0 z"
             inkscape:connector-curvature="0" /><path
             id="path3033"
             d="m 347.1,404.5 0,0 c -2.7,2.7 -4.1,6 -4.1,9.6 0,1.4 0.5,2.7 1.4,4.1 0.9,0.9 1.8,1.4 3.2,1.4 h 10.5 c 1.8,0 3.2,-0.9 4.1,-2.3 0.9,-1.4 0.9,-3.7 0,-5 -1.8,-3.2 -5,-6.4 -10.1,-8.2 -1.8,-1.5 -3.6,-1 -5,0.4 l 0,0 z"
             inkscape:connector-curvature="0" /><path
             id="path3035"
             d="m 355.8,423.7 c -0.9,0 -1.8,-0.5 -2.7,-1.4 l -6,-8.2 c -0.9,-1.4 -0.9,-3.2 0.9,-4.6 1.4,-0.9 3.2,-0.9 4.6,0.5 l 6,8.2 c 0.9,1.4 0.9,3.2 -0.5,4.6 -0.9,0.4 -1.4,0.9 -2.3,0.9 l 0,0 z"
             inkscape:connector-curvature="0" /></g></g></g></g></g></svg>