<?xml version="1.0" encoding="UTF-8" standalone="no"?>
<!-- Created with Inkscape (http://www.inkscape.org/) -->

<svg
   xmlns:dc="http://purl.org/dc/elements/1.1/"
   xmlns:cc="http://creativecommons.org/ns#"
   xmlns:rdf="http://www.w3.org/1999/02/22-rdf-syntax-ns#"
   xmlns:svg="http://www.w3.org/2000/svg"
   xmlns="http://www.w3.org/2000/svg"
   version="1.1"
   width="481.70001"
   height="183"
   id="svg2">
  <defs
     id="defs4" />
  <metadata
     id="metadata7">
    <rdf:RDF>
      <cc:Work
         rdf:about="">
        <dc:format>image/svg+xml</dc:format>
        <dc:type
           rdf:resource="http://purl.org/dc/dcmitype/StillImage" />
        <dc:title></dc:title>
      </cc:Work>
    </rdf:RDF>
  </metadata>
  <g
     id="layer2">
    <path
       d="m 18.182746,140.5736 c 0,0 -24.2436613,-5.55584 -13.6370595,-32.82995 C 15.152288,80.469522 16.667517,68.852767 16.667517,68.852767 L 25.75889,53.195403 176.27162,53.700479 185.86807,6.7283862 288.90363,6.22331 c 0,0 53.53808,28.284271 68.18529,44.446711 14.64722,16.162441 77.27667,8.586297 77.27667,8.586297 l 27.7792,9.596449 6.06092,21.71828 3.53553,21.213213 6.06091,14.14213 -1.51522,16.66752 -34.34519,4.54568 -8.08122,6.06092 c 0,0 -10.10153,22.72843 -24.74874,22.22336 -14.64721,-0.50508 -30.30458,-10.10153 -30.30458,-10.10153 l -13.13198,-19.69797 -231.32493,0 -11.11168,5.55583 -17.67767,22.22336 -34.345186,-6.56599 -8.586296,-16.66752 z"
       id="path3037"
       style="fill:#ffffff;stroke:none;display:inline" />
    <path
       d="m 18.182746,140.5736 c 0,0 -24.2436613,-5.55584 -13.6370595,-32.82995 C 15.152288,80.469522 16.667517,68.852767 16.667517,68.852767 L 25.75889,53.195403 176.27162,53.700479 185.86807,6.7283862 288.90363,6.22331 c 0,0 53.53808,28.284271 68.18529,44.446711 14.64722,16.162441 77.27667,8.586297 77.27667,8.586297 l 27.7792,9.596449 6.06092,21.71828 3.53553,21.213213 6.06091,14.14213 -1.51522,16.66752 -34.34519,4.54568 -8.08122,6.06092 c 0,0 -10.10153,22.72843 -24.74874,22.22336 -14.64721,-0.50508 -30.30458,-10.10153 -30.30458,-10.10153 l -13.13198,-19.69797 -231.32493,0 -11.11168,5.55583 -17.67767,22.22336 -34.345186,-6.56599 -8.586296,-16.66752 z"
       id="path3037-1"
       style="fill:#ffffff;stroke:none;display:inline" />
    <path
       d="m 18.182746,140.5736 c 0,0 -24.2436613,-5.55584 -13.6370595,-32.82995 C 15.152288,80.469522 16.667517,68.852767 16.667517,68.852767 L 25.75889,53.195403 176.27162,53.700479 185.86807,6.7283862 288.90363,6.22331 c 0,0 53.53808,28.284271 68.18529,44.446711 14.64722,16.162441 77.27667,8.586297 77.27667,8.586297 l 27.7792,9.596449 6.06092,21.71828 3.53553,21.213213 6.06091,14.14213 -1.51522,16.66752 -34.34519,4.54568 -8.08122,6.06092 c 0,0 -10.10153,22.72843 -24.74874,22.22336 -14.64721,-0.50508 -30.30458,-10.10153 -30.30458,-10.10153 l -13.13198,-19.69797 -231.32493,0 -11.11168,5.55583 -17.67767,22.22336 -34.345186,-6.56599 -8.586296,-16.66752 z"
       id="path3037-7"
       style="fill:#ffffff;stroke:none;display:inline" />
  </g>
  <g
     transform="translate(-16.292857,-383.71933)"
     id="layer1"
     style="display:inline">
    <g
       transform="translate(-41.007143,58.419325)"
       id="g3018"
       style="fill:#dcdbdc">
      <g
         id="g2986">
												<path
   d="M 258.3,343.6 H 277 v 41.2 h -25.2 l 7.8,-40.8 -1.3,-0.4 0,0 z m 37.1,0 h 39.4 c 18.3,1.8 33,8.7 47.2,19.7 -1.4,0.5 -2.7,1.4 -4.1,2.3 v 0.5 c -3.7,3.7 -5.5,13.3 -5.5,18.8 h -76.9 v -41.3 l -0.1,0 z"
   id="path2988" />

												<path
   d="M 107.6,476.4 C 87,476.4 61.4,468.6 60,468.2 l -2.7,-1.4 V 427 l 2.3,-1.4 c 1.8,-1.8 6.9,-7.3 6.9,-11 v -7.8 c 0.5,-5.5 0.5,-11.9 0.9,-17.4 0,-3.7 6,-11 11.9,-13.3 l 1.8,-0.5 h 146.5 l 7.3,-38.9 c 1.4,-6.9 6.9,-11.4 14.2,-11.4 h 86.5 c 27.5,2.3 43.5,15.6 61.4,29.8 8.2,6.4 16.5,15.1 26.1,21.1 4.1,0.5 10.5,0.5 17.9,0.9 43.5,1.8 83.3,4.6 87.5,24.3 l 4.1,34.8 c 2.7,1.8 6.4,5.5 6.4,10.5 v 15.1 c 0,4.1 -0.5,6.4 -4.1,9.2 -6.9,4.1 -14.7,6 -30.7,6 h -6.4 v -9.2 h 6.9 c 13.7,0 20.1,-0.9 25.2,-4.1 0,0 0,0.5 0,-1.4 V 447 c 0,-1.4 -2.3,-2.7 -3.2,-3.2 l -2.7,-0.9 -4.6,-39.4 c -3.2,-13.3 -54,-15.1 -78.3,-16 -8.2,-0.5 -15.1,-0.5 -19.7,-0.9 l -1.8,-0.5 c -10.5,-6.4 -19.7,-16 -27.9,-22.9 -16.9,-13.7 -31.6,-25.6 -55.4,-27.5 h -87.5 c -2.3,0 -4.1,0.9 -4.6,3.2 l -8.7,47.2 h -154 c -2.7,1.4 -5,4.1 -5.5,5 0,4.6 -0.5,11.4 -0.5,16.9 v 7.3 c 0,6.9 -6.4,13.3 -9.2,16 v 28.4 c 7.3,2.7 26.6,8.7 41.7,8.2 h 8.7 v 9.2 h -8.2 c -0.4,-0.7 -0.4,-0.7 -0.9,-0.7 l 0,0 z m 316,0 H 185.5 v -9.2 h 238.1 v 9.2 l 0,0 z"
   id="path2990" />

												<polygon
   points="529.3,444.3 523.4,407.7 515.1,407.7 515.1,444.3 "
   id="polygon2992" />

												<polygon
   points="327.4,398.5 304.5,398.5 304.5,393.9 327.4,393.9 "
   id="polygon2994" />

												<path
   d="m 70.5,412.2 h 5 c 9.6,0 22.4,-5.5 22.9,-14.2 v -8.7 H 72.3 c 0,8.3 -1.3,17 -1.8,22.9 l 0,0 z"
   id="path2996" />

												<path
   d="m 381,368.7 0,0 c -2.7,2.7 -4.1,12.4 -4.1,16 0,1.4 0.5,2.3 1.4,3.2 0.9,0.9 1.8,1.4 3.2,1.4 H 392 c 11.4,0 -1.8,-20.1 -6,-21.5 -1.8,-0.9 -3.6,-0.4 -5,0.9 l 0,0 z"
   id="path2998" />

												<polygon
   points="222.1,453.5 394.3,453.5 222.1,443.4 "
   id="polygon3000" />

												<path
   d="m 405.2,471.8 h -4.6 v -12.4 c 0,-33.4 25.6,-60.4 59.1,-60.4 33.5,0 60,27 60,60.4 v 12.4 h -4.6 v -13.3 c 0,-29.8 -25.6,-53.1 -55.4,-53.1 -29.8,0 -54.5,24.3 -54.5,54 v 12.4 l 0,0 z"
   id="path3002" />

												<path
   d="m 460.7,457.1 c -6,0 -10.5,4.6 -10.5,10.5 0,5.9 4.6,10.5 10.5,10.5 6,0 10.5,-4.6 10.5,-10.5 0,-5.9 -4.6,-10.5 -10.5,-10.5 l 0,0 z"
   id="path3004" />

												<path
   d="m 210.2,471.8 h -6.4 v -12.4 c 0,-29.8 -23.8,-54 -53.6,-54 -29.8,0 -51.7,24.3 -51.7,54 v 12.4 H 89.3 V 459 c 0,-33.4 27,-60 60.4,-60 33.4,0 62.7,25.6 62.7,59.1 l -2.2,13.7 0,0 z"
   id="path3006" />

												<path
   d="m 460.7,413.2 0,0 c 12.8,0 24.3,5 32.5,13.7 h -0.9 c 8.2,8.2 13.7,19.7 13.7,32.5 v 14.2 3.2 h -4.6 -1.4 c -2.3,7.8 -6.9,15.1 -12.8,20.1 -6.9,6 -16,11.4 -26.1,11.4 -10.1,0 -19.2,-3.7 -26.1,-9.6 V 497 c -6,-5 -10.5,-12.4 -12.8,-20.1 h -2.3 -5 v -4.6 -12.4 c 0,-12.8 5,-24.3 13.7,-32.5 h 0.5 c 7.7,-9.2 19.2,-14.2 31.6,-14.2 l 0,0 0,0 z m 0,27.4 c -14.7,0 -27,11.9 -27,27 0,14.7 11.9,27 27,27 14.7,0 27,-11.9 27,-27 0,-15.1 -11.9,-27 -27,-27 l 0,0 0,0 z m -308.7,0 c -14.7,0 -27,11.9 -27,27 0,14.7 11.9,27 27,27 14.7,0 27,-11.9 27,-27 0,-15.1 -12.3,-27 -27,-27 l 0,0 0,0 z m 0,-27.4 0,0 c 12.8,0 24.3,5 32.5,13.7 h 0.9 c 8.2,8.2 13.7,19.7 13.7,32.5 v 14.2 3.2 h -4.6 -3.7 c -2.3,7.8 -6.9,15.1 -12.8,20.1 -6.9,6 -16,11.4 -26.1,11.4 -10.1,0 -19.2,-5.5 -26.1,-11.4 -6,-5 -10.5,-12.4 -12.8,-20.1 h -2.3 -3.2 v -4.6 -12.4 c 0,-12.8 5,-24.3 13.7,-32.5 8.4,-9.1 18,-14.1 30.8,-14.1 l 0,0 z"
   id="path3008" />

												<path
   d="m 152,457.1 c -6,0 -10.5,4.6 -10.5,10.5 0,5.9 4.6,10.5 10.5,10.5 6,0 10.5,-4.6 10.5,-10.5 0,-5.9 -4.5,-10.5 -10.5,-10.5 l 0,0 z"
   id="path3010" />

											</g>
    </g>
  </g>
</svg>
