<?xml version="1.0" encoding="UTF-8" standalone="no"?>
<!-- Created with Inkscape (http://www.inkscape.org/) -->

<svg
   xmlns:dc="http://purl.org/dc/elements/1.1/"
   xmlns:cc="http://creativecommons.org/ns#"
   xmlns:rdf="http://www.w3.org/1999/02/22-rdf-syntax-ns#"
   xmlns:svg="http://www.w3.org/2000/svg"
   xmlns="http://www.w3.org/2000/svg"
   version="1.1"
   width="434.60001"
   height="179.10001"
   id="svg3847">
  <defs
     id="defs3849" />
  <metadata
     id="metadata3852">
    <rdf:RDF>
      <cc:Work
         rdf:about="">
        <dc:format>image/svg+xml</dc:format>
        <dc:type
           rdf:resource="http://purl.org/dc/dcmitype/StillImage" />
        <dc:title></dc:title>
      </cc:Work>
    </rdf:RDF>
  </metadata>
  <g
     id="layer3"
     style="display:inline">
    <path
       d="m 107.85714,142.67143 c 0,0 -14.285711,23.21429 -23.928568,25.71429 -9.642858,2.5 -28.571429,-0.35714 -29.642858,-1.78571 -1.071428,-1.42858 -16.071428,-20.35715 -16.071428,-20.35715 l -17.142857,-6.07143 c 0,0 -17.8571433,-12.85714 -17.8571433,-15 0,-2.14285 1.4285715,-19.64285 1.4285715,-19.64285 l 5,-29.642864 1.7857138,-16.428571 32.5,-40.357143 4.285715,-11.0714287 157.500004,-4.6428572 30.71428,5.7142857 67.14286,31.7857142 20,13.928572 63.92857,8.928571 c 0,0 27.85714,3.214286 34.28571,11.785714 6.42858,8.571429 10,15 10,15 l -2.14285,52.142857 -44.28572,6.07143 -13.57143,12.14286 c 0,0 -35.71428,20 -45,6.07143 C 317.5,153.02858 313.92857,139.81429 313.92857,139.81429 l -55.71428,2.14286 z"
       id="path3881"
       style="fill:#ffffff;stroke:none;display:inline" />
  </g>
  <g
     transform="translate(-76.985714,-439.95504)"
     id="layer1"
     style="display:inline">
    <g
       transform="translate(-3.1142857,110.55504)"
       id="g3873"
       style="fill:#dcdbdc">
      <path
         d="m 199.2,342.6 h 95.7 c 23.8,2.3 47.2,17.4 68.7,31.1 l -1.4,1.4 c -3.7,3.2 -5.5,7.8 -5.5,12.4 v 1.4 l -218.4,-8.2 c 22.9,-18.8 36.6,-38.1 60.9,-38.1 z"
         id="path3857" />
      <path
         d="M 115.4,475.4 C 93.9,475.4 82,464 81.5,463.5 l -1.4,-1.4 v -28.4 l 0.5,-0.9 c 0.9,-1.8 3.2,-7.3 3.2,-11.9 0,-4.1 0.5,-10.5 0.5,-16.9 v -11 c 0.5,-7.3 27.5,-36.6 36.6,-44.9 v -9.6 l 4.6,-2.7 c 18.8,-4.1 55.4,-6.4 80.6,-6.4 h 89.3 c 33.4,2.7 64.6,22.9 92,40.3 5,3.2 9.6,7.8 14.2,10.5 2.3,0 4.6,0.5 8.2,0.9 51.7,5 100.3,11.9 104.9,32.1 v 62.3 l -3.7,2.7 c -6.9,1.4 -13.3,2.3 -27.9,2.3 h -13.7 v -9.2 h 14.2 c 11.9,0 17.9,-0.5 22.4,-1.4 v -56.3 c -2.3,-9.6 -34.8,-17.9 -96.2,-23.8 -3.7,-0.5 -6.9,-0.5 -9.6,-0.9 l -1.8,-0.5 c -5,-3.2 -10.1,-8.2 -15.6,-11.4 -27.9,-17.9 -56.8,-36.2 -87.5,-38.5 h -89.7 c -22.9,0 -55.9,1.8 -75.1,5.5 v 8.2 l -4.1,1.8 c -4.6,2.7 -30.7,34.3 -32.5,40.3 v 10.5 c 0,6.4 -0.9,12.8 -0.9,16.9 0,6.4 -1.8,12.8 -3.7,15.6 V 457 c 3.2,2.7 12.4,10.5 26.6,10.1 h 5.5 v 9.2 l -6,-0.9 c -0.9,0 0.5,0 0,0 z m 280.7,0 H 194.6 v -9.2 h 201.5 v 9.2 z"
         id="path3859" />
      <path
         d="m 365.4,378.4 c -2.7,2.7 -4.1,6 -4.1,9.6 0,1.4 0.5,2.7 1.4,3.7 0.9,0.9 1.8,1.4 3.2,1.4 h 10.5 c 1.8,0 3.2,-0.9 4.1,-2.3 0.9,-1.4 0.9,-3.7 0,-5 -1.8,-3.2 -5,-6.4 -10.1,-8.2 -1.8,-1.1 -3.6,-0.6 -5,0.8 z"
         id="path3861" />
      <path
         d="m 367.2,390.7 c -0.9,0 -1.8,-0.5 -2.7,-1.4 l -6,-8.2 c -0.9,-1.4 -0.9,-3.2 0.9,-4.6 1.4,-0.9 3.2,-0.9 4.6,0.9 l 6,8.2 c 0.9,1.4 0.9,3.2 -0.9,4.6 -0.9,0.1 -1.4,0.5 -1.9,0.5 z m -277,16 h 8.2 c 7.8,0 17.9,-5.5 18.3,-12.4 v -6 H 92.5 c 0,6.5 -2.3,12 -2.3,18.4 z m 387.9,-4.5 11,20.1 c 3.7,-2.3 9.2,-4.1 13.3,-4.1 2.7,0 5.5,-1.8 8.7,-1.8 0,-8.2 0.9,-8.7 -6.4,-14.2 h -26.6 z m -178.2,4.5 H 277 v -4.5 h 22.9 m -105.3,0 h -22.9 v -4.6 h 22.9 m 27.5,53.1 v 6.4 h 149.3 m 137.3,-21 h -16.9 c -3.7,3.7 -3.7,8.2 -3.7,12.8 h 20.6 v -12.8 z"
         id="path3863" />
      <path
         d="m 488.6,457.1 c -1.4,-2.7 -1.4,-6.4 -1.4,-9.2 6.9,0 7.3,0.5 14.2,0.5 v 8.7 H 488.6 z M 138.3,347.7 93.9,386.6 v -8.7 c 9.2,-12.4 28.4,-33.4 32.1,-35.7 l 12.3,5.5 z m -11.5,152.5 c -6,-5 -10.5,-12.4 -12.8,-20.1 h -6 v -20.6 c 0,-12.8 5,-24.3 13.7,-32.5 8.2,-8.2 18.8,-13.7 31.6,-13.7 12.8,0 24.3,5 32.5,13.7 h 0.5 c 8.2,8.2 13.7,19.7 13.7,32.5 v 21.1 h -7.3 c -2.3,7.8 -6.9,15.1 -12.8,20.1 -6.9,6 -16,7.8 -26.1,7.8 -10.1,0 -19.2,-3.7 -26.1,-9.6 v 1.4 h -0.9 z m 300.4,-59.6 c -14.7,0 -27,11.9 -27,27 0,14.7 11.9,27 27,27 14.7,0 27,-11.9 27,-27 -0.4,-15.1 -12.3,-27 -27,-27 z m -274.3,0 c -14.7,0 -27,11.9 -27,27 0,14.7 11.9,27 27,27 14.7,0 27,-11.9 27,-27 -0.4,-15.1 -12.3,-27 -27,-27 z m 274.3,-27.4 c 12.8,0 24.3,5 32.5,13.7 h 0.9 c 8.2,8.2 13.7,19.7 13.7,32.5 v 21.1 h -7.8 c -2.3,7.8 -6.9,15.1 -12.8,20.1 -6.9,6 -16,7.8 -26.1,7.8 -10.1,0 -19.2,-3.7 -26.1,-9.6 v 1.8 c -6,-5 -10.5,-12.4 -12.8,-20.1 h -6 v -20.6 c 0,-12.8 5,-24.3 13.7,-32.5 7.9,-9.2 18,-14.2 30.8,-14.2 z m 0,43.9 c 6,0 10.5,4.6 10.5,10.5 0,5.9 -4.6,10.5 -10.5,10.5 -6,0 -10.5,-4.6 -10.5,-10.5 0,-5.9 4.6,-10.5 10.5,-10.5 z m -274.3,0 c -6,0 -10.5,4.6 -10.5,10.5 0,5.9 4.6,10.5 10.5,10.5 6,0 10.5,-4.6 10.5,-10.5 -0.4,-5.9 -5,-10.5 -10.5,-10.5 z"
         id="path3865" />
    </g>
  </g>
</svg>
